<svg id="Layer_1" data-name="Layer 1" xmlns="http://www.w3.org/2000/svg" viewBox="0 0 547.23 77.44"><title>Artboard 1</title><path d="M54.21,65.55a30,30,0,0,0,.24,4.31,4.1,4.1,0,0,0,1.13,2.4,5.36,5.36,0,0,0,2.48,1.23,30.06,30.06,0,0,0,4.31.64,1.09,1.09,0,0,1,.78.53,1.7,1.7,0,0,1,.28,1,1.55,1.55,0,0,1-.28.91,1,1,0,0,1-.86.4,60.29,60.29,0,0,1-6.44-.33,57,57,0,0,0-6.07-.33q-3.21,0-6.61.33T37,76.92a.82.82,0,0,1-.74-.4,1.78,1.78,0,0,1-.25-.91,2,2,0,0,1,.25-1,1,1,0,0,1,.74-.53,27.74,27.74,0,0,0,4.16-.64,5.32,5.32,0,0,0,2.42-1.23,4.34,4.34,0,0,0,1.19-2.4,23,23,0,0,0,.31-4.31V28.2c0-2.06-.52-3.35-1.56-3.88a12.28,12.28,0,0,0-5.25-.8,24.13,24.13,0,0,0-5.13.45,7,7,0,0,0-3.32,1.68A8.79,8.79,0,0,0,27.69,29a34.41,34.41,0,0,0-1.46,5.46.79.79,0,0,1-.55.65,2.31,2.31,0,0,1-.92.13,1.8,1.8,0,0,1-.82-.29.7.7,0,0,1-.37-.58q.33-3.11.37-6.35a46.81,46.81,0,0,0-.37-6.4c0-.63.39-1.05,1.17-1.27a9.53,9.53,0,0,1,2.6-.33H72.25a9.86,9.86,0,0,1,2.65.29,1.21,1.21,0,0,1,1,1.23c-.11.65-.2,1.47-.28,2.46s-.13,2.06-.13,3.24,0,2.38.13,3.61.17,2.4.28,3.52a.77.77,0,0,1-.41.62,2,2,0,0,1-.92.35,1.94,1.94,0,0,1-1-.12.86.86,0,0,1-.54-.68A24.89,24.89,0,0,0,71.78,29a8.67,8.67,0,0,0-2.23-3.36A7.55,7.55,0,0,0,66.14,24a22.25,22.25,0,0,0-4.8-.45,13.46,13.46,0,0,0-5.45.8c-1.12.53-1.68,1.82-1.68,3.88Z"/><path d="M110,54.87a1.8,1.8,0,0,0,1-.23,1.14,1.14,0,0,0,.32-1V45.74a21.21,21.21,0,0,0-.2-3.12,4.76,4.76,0,0,0-.79-2.1,3.64,3.64,0,0,0-1.68-1.26,9.42,9.42,0,0,0-2.9-.56.57.57,0,0,1-.54-.32,1.36,1.36,0,0,1-.18-.68,1.21,1.21,0,0,1,.18-.66.58.58,0,0,1,.54-.29c1.24,0,2.67.06,4.28.17s3.12.17,4.53.17c.83,0,1.6,0,2.33-.06l2.11-.11,2.08-.11c.71,0,1.48-.06,2.3-.06a.51.51,0,0,1,.49.29,1.28,1.28,0,0,1,.11.66,1.62,1.62,0,0,1-.2.68.52.52,0,0,1-.46.32,11.4,11.4,0,0,0-2.94.5,3.51,3.51,0,0,0-1.7,1.18,4.46,4.46,0,0,0-.77,2.08,22.76,22.76,0,0,0-.19,3.29v23a13.94,13.94,0,0,0,.25,3,3.38,3.38,0,0,0,.86,1.71,3.58,3.58,0,0,0,1.74.88,20.51,20.51,0,0,0,2.87.45.85.85,0,0,1,.56.35,1.13,1.13,0,0,1,0,1.31.74.74,0,0,1-.62.29,42.79,42.79,0,0,1-4.49-.23,40.87,40.87,0,0,0-4.27-.23c-1.49,0-3,.08-4.62.23s-3,.23-4.31.23a.58.58,0,0,1-.54-.29,1.35,1.35,0,0,1,0-1.31.69.69,0,0,1,.54-.35,19.63,19.63,0,0,0,2.9-.45,3.56,3.56,0,0,0,1.71-.88,3.13,3.13,0,0,0,.82-1.71,18,18,0,0,0,.2-3V59c0-1-.43-1.52-1.29-1.52H92.45q-1.29,0-1.29,1.17V68.77a14.85,14.85,0,0,0,.23,3,3.29,3.29,0,0,0,.84,1.71,3.58,3.58,0,0,0,1.74.88,20.76,20.76,0,0,0,2.87.45.83.83,0,0,1,.58.35,1.17,1.17,0,0,1,0,1.31.74.74,0,0,1-.64.29,42.93,42.93,0,0,1-4.49-.23A40.49,40.49,0,0,0,88,76.31c-1.49,0-3,.08-4.61.23s-3,.23-4.3.23a.6.6,0,0,1-.53-.29,1.22,1.22,0,0,1,0-1.31.73.73,0,0,1,.53-.35,20.08,20.08,0,0,0,2.9-.45,3.57,3.57,0,0,0,1.7-.88,3.06,3.06,0,0,0,.82-1.71,16.94,16.94,0,0,0,.2-3v-23a19.91,19.91,0,0,0-.2-3.12,4.73,4.73,0,0,0-.79-2.11,3.78,3.78,0,0,0-1.68-1.26,9.36,9.36,0,0,0-2.9-.56.6.6,0,0,1-.53-.32,1.36,1.36,0,0,1-.18-.68,1.21,1.21,0,0,1,.18-.66.61.61,0,0,1,.53-.29c1.25,0,2.67.06,4.28.17s3.11.17,4.52.17c.82,0,1.59,0,2.32-.06l2.12-.11,2.08-.11q1.05-.06,2.28-.06a.54.54,0,0,1,.52.29,1.28,1.28,0,0,1,.12.66,1.65,1.65,0,0,1-.22.68.54.54,0,0,1-.47.32,11.39,11.39,0,0,0-2.93.5,3.49,3.49,0,0,0-1.71,1.17,4.39,4.39,0,0,0-.76,2.08,24.75,24.75,0,0,0-.17,3.29v7.95c0,.78.43,1.18,1.29,1.18Z"/><path d="M156.27,36.92a3.28,3.28,0,0,1,.89.11c.31.1.42.42.35.95a6.17,6.17,0,0,0-.1,1c0,.36,0,.74,0,1.15v.94q0,1.29.09,2.52c.06.81.08,1.62.08,2.42q0,.23-.3.36a1.53,1.53,0,0,1-.64.13,1.63,1.63,0,0,1-.59-.11.54.54,0,0,1-.33-.38,28.51,28.51,0,0,0-.83-3.57,4.45,4.45,0,0,0-1.2-2,3.63,3.63,0,0,0-2-.85,30.67,30.67,0,0,0-3.31-.23h-3.53q-1.69,0-2.64.06a2.55,2.55,0,0,0-1.43.43,1.73,1.73,0,0,0-.58,1.19,16.94,16.94,0,0,0-.12,2.31V53.66c0,.55.1.9.29,1a.94.94,0,0,0,.57.2,29.51,29.51,0,0,0,4.28-.24,5.22,5.22,0,0,0,2.34-.85,2.88,2.88,0,0,0,1.06-1.62,18.84,18.84,0,0,0,.45-2.57.63.63,0,0,1,.39-.47,1.53,1.53,0,0,1,.7-.16,1.08,1.08,0,0,1,.6.16.51.51,0,0,1,.26.47q0,.95-.06,1.68c0,.49-.08,1-.13,1.46s-.09,1-.13,1.54,0,1.15,0,1.84a25.61,25.61,0,0,0,.17,3.21,14.18,14.18,0,0,1,.16,1.6c0,.58,0,1.22,0,1.91a.47.47,0,0,1-.29.43,1.46,1.46,0,0,1-.63.14,1.6,1.6,0,0,1-.67-.14.61.61,0,0,1-.36-.43,20.35,20.35,0,0,0-.45-2.79,2.88,2.88,0,0,0-1.06-1.66,4.89,4.89,0,0,0-2.34-.82,31.6,31.6,0,0,0-4.28-.22.91.91,0,0,0-.57.22,1,1,0,0,0-.29.84v7.73a29.33,29.33,0,0,0,.24,4.25,4,4,0,0,0,1.1,2.34,4.36,4.36,0,0,0,2.47,1,33.28,33.28,0,0,0,4.35.22c1,0,1.87,0,2.68-.12a7.76,7.76,0,0,0,1.85-.34,13.6,13.6,0,0,0,2-.92,5.19,5.19,0,0,0,1.47-1.24,5.78,5.78,0,0,0,1-1.89,16.22,16.22,0,0,0,.6-2.9.62.62,0,0,1,.39-.46,1.76,1.76,0,0,1,.73-.14,1.66,1.66,0,0,1,.78.17.44.44,0,0,1,.29.49c-.2,1.66-.37,3.2-.53,4.62a29.86,29.86,0,0,0-.19,4.36,1.24,1.24,0,0,1,0,.23.7.7,0,0,1-.19.28,1.61,1.61,0,0,1-.42.23,2.21,2.21,0,0,1-.7.1H136.58c-1.5,0-3,0-4.38.11s-2.71.15-3.86.23a.65.65,0,0,1-.58-.31,1.31,1.31,0,0,1-.2-.71,1.14,1.14,0,0,1,.16-.59.7.7,0,0,1,.56-.34,13.61,13.61,0,0,0,2.4-.5,4.42,4.42,0,0,0,1.68-.95,3.68,3.68,0,0,0,1-1.58,7.79,7.79,0,0,0,.32-2.4V46.75c0-.87,0-1.71-.09-2.55a10.41,10.41,0,0,0-.4-2.28,5.27,5.27,0,0,0-.92-1.78,3.11,3.11,0,0,0-1.66-1,8.9,8.9,0,0,0-1.35-.31q-.72-.12-1.35-.18a.53.53,0,0,1-.5-.27,1.17,1.17,0,0,1-.16-.62,1.29,1.29,0,0,1,.17-.67.54.54,0,0,1,.49-.3c1.3,0,2.49,0,3.56.08s2.29.09,3.73.09Z"/><path d="M230.24,45.62a2.66,2.66,0,0,0,1.48-.32,1.6,1.6,0,0,0,.45-1.35V32.59a29.64,29.64,0,0,0-.29-4.46,6.85,6.85,0,0,0-1.13-3,5.31,5.31,0,0,0-2.4-1.8,13.6,13.6,0,0,0-4.14-.8.84.84,0,0,1-.78-.45,2.12,2.12,0,0,1-.24-1,1.85,1.85,0,0,1,.24-.94.85.85,0,0,1,.78-.42c1.78,0,3.82.09,6.11.25s4.46.25,6.48.25q1.77,0,3.33-.09l3-.16,3-.16c1-.06,2.11-.09,3.29-.09a.71.71,0,0,1,.69.42,1.82,1.82,0,0,1,.17.94,2.64,2.64,0,0,1-.29,1,.73.73,0,0,1-.66.45,16,16,0,0,0-4.2.72,5,5,0,0,0-2.42,1.68,6.46,6.46,0,0,0-1.11,3,33.49,33.49,0,0,0-.27,4.71V65.49a20.83,20.83,0,0,0,.35,4.3,5,5,0,0,0,1.23,2.44,5.15,5.15,0,0,0,2.49,1.26,29.46,29.46,0,0,0,4.1.64,1.23,1.23,0,0,1,.8.5,1.57,1.57,0,0,1,.3.94,1.54,1.54,0,0,1-.3.93,1,1,0,0,1-.88.42,59.64,59.64,0,0,1-6.42-.33,56.76,56.76,0,0,0-6.09-.33q-3.21,0-6.61.33t-6.15.33a.83.83,0,0,1-.78-.42,1.82,1.82,0,0,1-.25-.93,1.86,1.86,0,0,1,.25-.94,1,1,0,0,1,.78-.5,28.5,28.5,0,0,0,4.14-.64,5.1,5.1,0,0,0,2.44-1.26,4.48,4.48,0,0,0,1.17-2.44,25.09,25.09,0,0,0,.29-4.3V51.57c0-1.45-.62-2.17-1.85-2.17H205.18c-1.23,0-1.85.56-1.85,1.68V65.49a21.81,21.81,0,0,0,.33,4.3,4.73,4.73,0,0,0,1.21,2.44,5.16,5.16,0,0,0,2.48,1.26,29.88,29.88,0,0,0,4.11.64,1.21,1.21,0,0,1,.82.5,1.62,1.62,0,0,1,.28.94,1.59,1.59,0,0,1-.28.93,1,1,0,0,1-.91.42,59.59,59.59,0,0,1-6.41-.33,56.58,56.58,0,0,0-6.08-.33c-2.12,0-4.32.11-6.58.33s-4.32.33-6.15.33a.85.85,0,0,1-.76-.42,1.66,1.66,0,0,1-.27-.93,1.69,1.69,0,0,1,.27-.94,1.09,1.09,0,0,1,.76-.5,28.5,28.5,0,0,0,4.14-.64,5.1,5.1,0,0,0,2.44-1.26,4.48,4.48,0,0,0,1.17-2.44,25.09,25.09,0,0,0,.29-4.3V32.61a29.78,29.78,0,0,0-.29-4.47,6.89,6.89,0,0,0-1.13-3,5.31,5.31,0,0,0-2.4-1.8,13.6,13.6,0,0,0-4.14-.8.84.84,0,0,1-.76-.45,1.92,1.92,0,0,1-.26-1,1.69,1.69,0,0,1,.26-.94.85.85,0,0,1,.76-.42c1.78,0,3.81.09,6.11.25s4.45.25,6.46.25c1.17,0,2.27,0,3.31-.09l3-.16,3-.16c1-.06,2.09-.09,3.26-.09a.75.75,0,0,1,.74.42,1.82,1.82,0,0,1,.17.94,2.34,2.34,0,0,1-.31,1,.79.79,0,0,1-.68.45,16.17,16.17,0,0,0-4.18.72,4.94,4.94,0,0,0-2.44,1.67,6.24,6.24,0,0,0-1.09,3,37.19,37.19,0,0,0-.25,4.7V44c0,1.12.62,1.67,1.85,1.67Z"/><path d="M283.23,36.92a3.33,3.33,0,0,1,.89.11c.3.1.42.42.34.95a7.51,7.51,0,0,0-.1,1c0,.36,0,.74,0,1.15v.94c0,.86,0,1.7.08,2.52s.09,1.62.09,2.42q0,.23-.3.36a1.64,1.64,0,0,1-1.23,0,.5.5,0,0,1-.33-.38,26.6,26.6,0,0,0-.84-3.57,4.44,4.44,0,0,0-1.19-2,3.7,3.7,0,0,0-2-.85,30.89,30.89,0,0,0-3.32-.23h-3.53q-1.69,0-2.64.06a2.54,2.54,0,0,0-1.42.43,1.78,1.78,0,0,0-.59,1.19,19.13,19.13,0,0,0-.11,2.31V53.66c0,.55.09.9.28,1a1,1,0,0,0,.58.2,29.61,29.61,0,0,0,4.28-.24,5.22,5.22,0,0,0,2.34-.85,2.93,2.93,0,0,0,1.06-1.62,17.56,17.56,0,0,0,.44-2.57.63.63,0,0,1,.39-.47,1.53,1.53,0,0,1,.7-.16,1.13,1.13,0,0,1,.61.16.51.51,0,0,1,.26.47q0,.95-.06,1.68c0,.49-.08,1-.13,1.46s-.09,1-.13,1.54-.06,1.15-.06,1.84a25.47,25.47,0,0,0,.18,3.21c.07.48.12,1,.15,1.6s.05,1.22.05,1.91a.47.47,0,0,1-.29.43,1.46,1.46,0,0,1-.63.14,1.65,1.65,0,0,1-.68-.14.61.61,0,0,1-.36-.43,19.1,19.1,0,0,0-.44-2.79,2.93,2.93,0,0,0-1.06-1.66,4.89,4.89,0,0,0-2.34-.82,31.7,31.7,0,0,0-4.28-.22,1,1,0,0,0-.58.22,1,1,0,0,0-.28.84v7.73a29.33,29.33,0,0,0,.24,4.25,4,4,0,0,0,1.09,2.34,4.42,4.42,0,0,0,2.47,1,33.28,33.28,0,0,0,4.35.22c1,0,1.87,0,2.68-.12a7.76,7.76,0,0,0,1.86-.34,14.62,14.62,0,0,0,2-.92,5.15,5.15,0,0,0,1.46-1.24,5.79,5.79,0,0,0,1-1.89,16.22,16.22,0,0,0,.6-2.9.62.62,0,0,1,.39-.46,1.73,1.73,0,0,1,.73-.14,1.66,1.66,0,0,1,.78.17.43.43,0,0,1,.28.49c-.19,1.66-.37,3.2-.53,4.62a33,33,0,0,0-.19,4.36.74.74,0,0,1,0,.23.67.67,0,0,1-.18.28,1.61,1.61,0,0,1-.42.23,2.26,2.26,0,0,1-.7.1H263.53c-1.49,0-2.95,0-4.37.11s-2.72.15-3.87.23a.63.63,0,0,1-.57-.31,1.23,1.23,0,0,1-.2-.71,1.14,1.14,0,0,1,.16-.59.7.7,0,0,1,.56-.34,13.49,13.49,0,0,0,2.39-.5,4.42,4.42,0,0,0,1.68-.95,3.69,3.69,0,0,0,1-1.58,7.82,7.82,0,0,0,.31-2.4V46.75c0-.87,0-1.71-.08-2.55a10.41,10.41,0,0,0-.4-2.28,5.27,5.27,0,0,0-.92-1.78,3.1,3.1,0,0,0-1.67-1,8.9,8.9,0,0,0-1.35-.31q-.72-.12-1.35-.18a.54.54,0,0,1-.5-.27,1.27,1.27,0,0,1-.16-.62,1.29,1.29,0,0,1,.18-.67.52.52,0,0,1,.48-.3c1.31,0,2.49,0,3.56.08s2.3.09,3.74.09Z"/><path d="M295.69,45.76a21.35,21.35,0,0,0-.2-3.13,5,5,0,0,0-.79-2.11A3.78,3.78,0,0,0,293,39.26a9.42,9.42,0,0,0-2.9-.56.58.58,0,0,1-.53-.32,1.27,1.27,0,0,1-.19-.68,1.14,1.14,0,0,1,.19-.66.6.6,0,0,1,.53-.29c1.24,0,2.67.06,4.27.17s3.12.17,4.53.17q1.23,0,2.31-.06l2.11-.11,2.08-.11c.71,0,1.48-.06,2.3-.06a.54.54,0,0,1,.52.29,1.28,1.28,0,0,1,.11.66,1.64,1.64,0,0,1-.21.68.57.57,0,0,1-.48.32,11.56,11.56,0,0,0-2.93.5A3.54,3.54,0,0,0,303,40.38a4.5,4.5,0,0,0-.76,2.08,26.76,26.76,0,0,0-.17,3.3V68.82a15.55,15.55,0,0,0,.23,3,3.12,3.12,0,0,0,.85,1.68,3.65,3.65,0,0,0,1.74.86,20.51,20.51,0,0,0,2.87.45.78.78,0,0,1,.57.37,1.22,1.22,0,0,1,.2.66,1.1,1.1,0,0,1-.2.64.71.71,0,0,1-.63.28,42.79,42.79,0,0,1-4.49-.23,40.64,40.64,0,0,0-4.25-.23c-1.49,0-3,.08-4.61.23s-3,.23-4.31.23a.57.57,0,0,1-.54-.28,1.17,1.17,0,0,1-.18-.64,1.28,1.28,0,0,1,.18-.66.69.69,0,0,1,.54-.37,19.85,19.85,0,0,0,2.9-.45,3.63,3.63,0,0,0,1.71-.86,3,3,0,0,0,.82-1.68,17.87,17.87,0,0,0,.2-3Z"/><path d="M348.75,71.6a.61.61,0,0,1-.32.61c-1,.72-2,1.39-2.93,2a14.37,14.37,0,0,1-3.2,1.53,22.37,22.37,0,0,1-4.18.94,44.63,44.63,0,0,1-5.74.31,24.54,24.54,0,0,1-8.55-1.38,16.5,16.5,0,0,1-6.26-4,17,17,0,0,1-3.85-6.43,26.51,26.51,0,0,1-1.32-8.7A23.88,23.88,0,0,1,314,47.62a18.06,18.06,0,0,1,4.32-6.54,18.26,18.26,0,0,1,6.56-4,24.48,24.48,0,0,1,8.27-1.35,19.72,19.72,0,0,1,5.48.74,22.25,22.25,0,0,1,4.63,1.85,6,6,0,0,0,2,.73c.56.07,1-.29,1.28-1.08a.54.54,0,0,1,.37-.43,1.6,1.6,0,0,1,.65-.08,1.23,1.23,0,0,1,.56.17.34.34,0,0,1,.17.4,17.84,17.84,0,0,0-.37,5c.09,1.85.24,3.73.43,5.64a.69.69,0,0,1-.29.55,1.42,1.42,0,0,1-.65.29,1.3,1.3,0,0,1-.7-.09.62.62,0,0,1-.4-.49,11.87,11.87,0,0,0-4.39-7.87,14.56,14.56,0,0,0-9.08-2.72A10.75,10.75,0,0,0,327,39.85a12.43,12.43,0,0,0-4,4,18.27,18.27,0,0,0-2.3,5.56,27,27,0,0,0-.73,6.15,32.76,32.76,0,0,0,.85,7.78,18.43,18.43,0,0,0,2.52,6,12,12,0,0,0,4.1,3.85,11.24,11.24,0,0,0,5.6,1.35,25.31,25.31,0,0,0,4.17-.31,8.65,8.65,0,0,0,3.2-1.14,5.53,5.53,0,0,0,2.06-2.27,8.24,8.24,0,0,0,.73-3.69,13.15,13.15,0,0,0-.23-2.75,2.71,2.71,0,0,0-.88-1.54,3.8,3.8,0,0,0-1.76-.73c-.75-.13-1.72-.26-2.9-.37a.63.63,0,0,1-.58-.29,1.23,1.23,0,0,1-.17-.62,1.1,1.1,0,0,1,.17-.59.53.53,0,0,1,.46-.25c1.38,0,2.81,0,4.28.14s2.78.14,3.91.14q.82,0,1.56-.06l1.52-.08,1.71-.09c.61,0,1.31-.05,2.1-.05a.47.47,0,0,1,.43.25,1.28,1.28,0,0,1,.14.59,1.07,1.07,0,0,1-.17.59.79.79,0,0,1-.55.32,6.6,6.6,0,0,0-2,.41,2.14,2.14,0,0,0-1,.82,3,3,0,0,0-.38,1.32c0,.54-.05,1.18-.05,1.93Z"/><path d="M385.18,54.87a1.8,1.8,0,0,0,1-.23,1.14,1.14,0,0,0,.32-1V45.74a21.21,21.21,0,0,0-.2-3.12,4.76,4.76,0,0,0-.79-2.1,3.64,3.64,0,0,0-1.68-1.26,9.42,9.42,0,0,0-2.9-.56.57.57,0,0,1-.54-.32,1.36,1.36,0,0,1-.18-.68,1.21,1.21,0,0,1,.18-.66.58.58,0,0,1,.54-.29c1.24,0,2.67.06,4.28.17s3.12.17,4.53.17c.83,0,1.6,0,2.33-.06l2.11-.11,2.08-.11c.71,0,1.48-.06,2.3-.06a.51.51,0,0,1,.49.29,1.28,1.28,0,0,1,.11.66,1.62,1.62,0,0,1-.2.68.52.52,0,0,1-.46.32,11.4,11.4,0,0,0-2.94.5,3.51,3.51,0,0,0-1.7,1.18,4.46,4.46,0,0,0-.77,2.08,24.29,24.29,0,0,0-.19,3.29v23a13.94,13.94,0,0,0,.25,3,3.38,3.38,0,0,0,.86,1.71,3.58,3.58,0,0,0,1.74.88,20.51,20.51,0,0,0,2.87.45.85.85,0,0,1,.56.35,1.13,1.13,0,0,1,0,1.31.74.74,0,0,1-.62.29,42.79,42.79,0,0,1-4.49-.23,40.87,40.87,0,0,0-4.27-.23c-1.49,0-3,.08-4.62.23s-3,.23-4.31.23a.58.58,0,0,1-.54-.29,1.35,1.35,0,0,1,0-1.31.69.69,0,0,1,.54-.35,19.63,19.63,0,0,0,2.9-.45,3.56,3.56,0,0,0,1.71-.88,3.13,3.13,0,0,0,.82-1.71,18,18,0,0,0,.2-3V59c0-1-.43-1.52-1.29-1.52h-17.6q-1.29,0-1.29,1.17V68.77a14.85,14.85,0,0,0,.23,3,3.29,3.29,0,0,0,.84,1.71,3.58,3.58,0,0,0,1.74.88,20.76,20.76,0,0,0,2.87.45.83.83,0,0,1,.58.35,1.17,1.17,0,0,1,0,1.31.74.74,0,0,1-.64.29,42.93,42.93,0,0,1-4.49-.23,40.49,40.49,0,0,0-4.25-.23c-1.49,0-3,.08-4.61.23s-3,.23-4.3.23a.6.6,0,0,1-.53-.29,1.22,1.22,0,0,1,0-1.31.73.73,0,0,1,.53-.35,20.08,20.08,0,0,0,2.9-.45,3.57,3.57,0,0,0,1.7-.88,3.06,3.06,0,0,0,.82-1.71,16.94,16.94,0,0,0,.2-3v-23a19.91,19.91,0,0,0-.2-3.12,4.73,4.73,0,0,0-.79-2.11,3.78,3.78,0,0,0-1.68-1.26,9.36,9.36,0,0,0-2.9-.56.6.6,0,0,1-.53-.32,1.36,1.36,0,0,1-.18-.68,1.21,1.21,0,0,1,.18-.66.61.61,0,0,1,.53-.29c1.25,0,2.67.06,4.28.17s3.11.17,4.52.17c.82,0,1.59,0,2.32-.06l2.12-.11,2.08-.11q1.05-.06,2.28-.06a.54.54,0,0,1,.52.29,1.28,1.28,0,0,1,.12.66,1.65,1.65,0,0,1-.22.68.54.54,0,0,1-.47.32,11.39,11.39,0,0,0-2.93.5,3.49,3.49,0,0,0-1.71,1.17,4.39,4.39,0,0,0-.76,2.08,24.75,24.75,0,0,0-.17,3.29v7.95c0,.78.43,1.18,1.29,1.18Z"/><path d="M422.94,68.81a19.81,19.81,0,0,0,.17,3,2.82,2.82,0,0,0,.79,1.68,3.76,3.76,0,0,0,1.73.86,21.23,21.23,0,0,0,3,.45.76.76,0,0,1,.54.37,1.15,1.15,0,0,1,.21.66,1,1,0,0,1-.21.64.67.67,0,0,1-.6.28,43.47,43.47,0,0,1-4.51-.23,40.78,40.78,0,0,0-4.25-.23c-1.49,0-3,.08-4.62.23s-3,.23-4.33.23a.56.56,0,0,1-.52-.28,1.25,1.25,0,0,1-.17-.64,1.38,1.38,0,0,1,.17-.66.69.69,0,0,1,.52-.37,19.58,19.58,0,0,0,2.91-.45,3.79,3.79,0,0,0,1.7-.86,3.11,3.11,0,0,0,.83-1.68,16.83,16.83,0,0,0,.21-3V42.66c0-1.43-.36-2.34-1.09-2.71a8.71,8.71,0,0,0-3.67-.56,16.2,16.2,0,0,0-3.59.32,4.9,4.9,0,0,0-2.33,1.17,6.27,6.27,0,0,0-1.48,2.33,24.25,24.25,0,0,0-1,3.82.54.54,0,0,1-.38.46,1.64,1.64,0,0,1-.65.08,1.15,1.15,0,0,1-.57-.2.47.47,0,0,1-.26-.4c.15-1.46.24-2.94.26-4.45a31.71,31.71,0,0,0-.26-4.48c0-.44.27-.74.82-.89a6.81,6.81,0,0,1,1.82-.23h31.44a7.36,7.36,0,0,1,1.85.2.85.85,0,0,1,.73.86c-.07.46-.14,1-.2,1.73s-.08,1.44-.08,2.26,0,1.67.08,2.53.13,1.68.2,2.47a.54.54,0,0,1-.28.43,1.39,1.39,0,0,1-.65.24,1.41,1.41,0,0,1-.68-.08.6.6,0,0,1-.37-.48,17.7,17.7,0,0,0-.93-3.84,6,6,0,0,0-1.57-2.36,5.28,5.28,0,0,0-2.38-1.17,15,15,0,0,0-3.36-.32,9.6,9.6,0,0,0-3.82.56c-.78.37-1.17,1.28-1.17,2.71Z"/><path d="M447.05,44.67a5.54,5.54,0,0,0,.74,3,6.86,6.86,0,0,0,1.88,2,14,14,0,0,0,2.52,1.45l2.67,1.19c1.5.71,3,1.45,4.45,2.24a20,20,0,0,1,4,2.74,12.77,12.77,0,0,1,2.84,3.7,11.51,11.51,0,0,1,1.09,5.22A9.78,9.78,0,0,1,466,71.34a10.55,10.55,0,0,1-3.29,3.42,14.11,14.11,0,0,1-4.55,1.91,22.4,22.4,0,0,1-5.06.59,15.91,15.91,0,0,1-3.71-.5,13.83,13.83,0,0,1-3.75-1.51L445,75a1.57,1.57,0,0,0-1.56.23,2.66,2.66,0,0,0-.82,1.23,1,1,0,0,1-.47.48,1.2,1.2,0,0,1-.62.08,1,1,0,0,1-.52-.21.54.54,0,0,1-.2-.4c.12-.86.22-1.8.32-2.8s.14-2,.14-3,0-2-.08-3-.17-2.07-.32-3.18a.6.6,0,0,1,.23-.59,1.14,1.14,0,0,1,.65-.27,1.19,1.19,0,0,1,.67.13.62.62,0,0,1,.37.5,15.89,15.89,0,0,0,1.31,4.38,11.49,11.49,0,0,0,2.34,3.34,10.42,10.42,0,0,0,3.2,2.15,9.73,9.73,0,0,0,3.92.78,10.2,10.2,0,0,0,3-.45,8,8,0,0,0,2.57-1.29,5.9,5.9,0,0,0,2.41-5,7.25,7.25,0,0,0-.92-3.7,10.53,10.53,0,0,0-2.27-2.73,15.18,15.18,0,0,0-3-2c-1.1-.57-2.14-1.09-3.11-1.57-1.3-.59-2.6-1.2-3.89-1.82A15.42,15.42,0,0,1,444.93,54a10.28,10.28,0,0,1-2.47-3.17,10.14,10.14,0,0,1-.95-4.64,9,9,0,0,1,1.15-4.72,9.32,9.32,0,0,1,3-3.09,13.42,13.42,0,0,1,4.29-1.7,22.8,22.8,0,0,1,5-.53,15.86,15.86,0,0,1,2.8.2,18.06,18.06,0,0,1,2.57.68c.49.16.91.28,1.25.38a3.65,3.65,0,0,0,1,.14,1,1,0,0,0,1-.57.69.69,0,0,1,.45-.33,1.34,1.34,0,0,1,.62-.06,1.91,1.91,0,0,1,.53.16.27.27,0,0,1,.18.34,10.59,10.59,0,0,0-.4,2.11c-.06.7-.09,1.44-.09,2.23a19.28,19.28,0,0,0,.19,2.78c.13.83.23,1.8.3,2.93,0,.12-.08.22-.24.32a1.42,1.42,0,0,1-.56.18,1.2,1.2,0,0,1-.62-.08.58.58,0,0,1-.36-.42,25.31,25.31,0,0,0-1.28-4.26,7,7,0,0,0-1.76-2.62A6,6,0,0,0,458,39a15.74,15.74,0,0,0-3.6-.36,9.91,9.91,0,0,0-2.82.39,7,7,0,0,0-2.31,1.15,5.55,5.55,0,0,0-1.58,1.91A5.7,5.7,0,0,0,447.05,44.67Z"/><path d="M528.08,27.16V77.44h-56.3v-50c0-.05,0-.1,0-.15s.06-.11.16-.12h.75c.48,0,.44,0,.44-.38V19c0-.41-.06-.38.42-.38.2,0,.21,0,.26-.17l.39-1.28q1.62-5.34,3.25-10.67a4.06,4.06,0,0,0,.1-1.2c0-.09,0-.11-.15-.12h-.11a2,2,0,0,1-.6,0,1.83,1.83,0,0,1,0-.52c0-.27,0-.26.32-.26h.17c.4,0,.39,0,.39-.33V.81c0-.12,0-.25,0-.37h1.09a.48.48,0,0,1,.06.33V4.2c0,.11,0,.13.17.14h.58c.11,0,.15,0,.15.12V5c0,.1,0,.12-.15.13h-.44c-.31,0-.31,0-.31.25V6a1.2,1.2,0,0,0,.07.46c.26.85.51,1.71.76,2.56q1.4,4.65,2.78,9.29c.11.35.08.3.47.31s.47-.05.47.38v7.75a2.62,2.62,0,0,0,0,.28c0,.13,0,.15.19.15h1.26c.3,0,.31,0,.31.25v6.34c0,.29,0,.3.36.29H486c.47,0,.42,0,.42.36v7c0,.51-.09.44.55.45H487c.13,0,.17,0,.17-.13a2.35,2.35,0,0,0,0-.26v-5a2.17,2.17,0,0,1,0-.26.09.09,0,0,1,.07-.09l.12,0,3.32-1a.68.68,0,0,1,.4,0l.71.21,2.58.76c.22.06.22.07.22.27v5.09a2.17,2.17,0,0,0,0,.26c0,.13,0,.15.18.15.53,0,.47.05.48-.37v-7a1.77,1.77,0,0,1,0-.23c0-.15,0-.17.19-.18h2.73c.06,0,.11,0,.11-.09s0-.15,0-.23V32.36a1.69,1.69,0,0,1,0-.23c0-.05,0-.07.09-.07h.34c.15,0,.17,0,.17-.16a.71.71,0,0,0,0-.14V29a.91.91,0,0,0,0-.17c0-.09,0-.12-.14-.12h-.76c-.17,0-.19,0-.2-.16a.71.71,0,0,1,0-.14,1.76,1.76,0,0,0,0-.23c0-.31,0-.31-.34-.31h-.45c-.11,0-.14,0-.14-.13v-.69c0-.07,0-.11.13-.11h.37c.47,0,.43,0,.43-.38,0-.16,0-.33,0-.49s0-.11.15-.12h1c.18,0,.2,0,.2-.17v-.63c0-.1,0-.12.14-.13H500c.1,0,.14,0,.14.13s0,.38,0,.57,0,.23.27.23h.85c.06,0,.11,0,.11.09a1.34,1.34,0,0,1,0,.2v.52c0,.16,0,.17.23.17h.54c.11,0,.15,0,.15.12s0,.46,0,.69,0,.11-.15.12h-.55c-.21,0-.22,0-.23.2v.52c0,.09,0,.12-.15.12h-.75c-.18,0-.2,0-.21.17v3.05c0,.08.05.11.16.12h.13c.43,0,.4,0,.4.35v1.47c0,.15,0,.17.2.17h2.8c.08,0,.13,0,.13.1v7.31a2.71,2.71,0,0,0,0,.29c0,.09,0,.11.15.12h.07c.48,0,.43,0,.43-.34v-5a2.17,2.17,0,0,1,0-.26.11.11,0,0,1,.08-.11l.16-.06,3.26-1a.64.64,0,0,1,.43,0l3.28,1c.21.06.22,0,.22.27V41.7c0,.15,0,.17.23.17h.13c.53,0,.47,0,.47-.38V34.16c0-.08,0-.11.13-.11h.62c.48,0,.43,0,.44-.37V27.62a1.76,1.76,0,0,1,0-.23c0-.22,0-.23.26-.23h1.5c.49,0,.44,0,.44-.37v-8c0-.13,0-.16.18-.16h.58c.13,0,.16,0,.19-.12l.09-.28q1.73-5.67,3.44-11.34a3.19,3.19,0,0,0,.21-1.39c0-.32,0-.3-.35-.3a1.93,1.93,0,0,1-.48,0c-.1-.13,0-.28,0-.42,0-.43-.05-.38.46-.38s.42,0,.42-.37V.78a.78.78,0,0,1,0-.34h1.09c.08.1,0,.22,0,.34,0,1.06,0,2.13,0,3.19a1.77,1.77,0,0,0,0,.23c0,.11,0,.13.17.14H523c.11,0,.14,0,.15.12V5c0,.1,0,.12-.15.13h-.41c-.36,0-.34,0-.34.3,0,.16,0,.33,0,.49a1.83,1.83,0,0,0,.07.46c1.11,3.69,2.21,7.4,3.32,11.09.1.33.2.65.29,1a.16.16,0,0,0,.17.12h.1c.41,0,.36,0,.37.32v7.83a2.25,2.25,0,0,0,0,.26c0,.13,0,.15.18.15Zm-27.73,1h.2s.08,0,.08,0a.51.51,0,0,0,0-.42c-.05-.08-.18,0-.28,0h-.27c-.12,0-.15,0-.16.11v.09C499.9,28.12,499.9,28.12,500.35,28.12Zm-1.43-.52c-.4,0-.36,0-.36.32V28a.13.13,0,0,0,.13.11h.47a.12.12,0,0,0,.13-.12.25.25,0,0,1,0-.08C499.31,27.61,499.3,27.6,498.92,27.6Zm0-.61c.4,0,.39,0,.38-.35a.13.13,0,0,0,0-.06.1.1,0,0,0-.08-.08,2.53,2.53,0,0,0-.55,0,.09.09,0,0,0-.08.08.37.37,0,0,0,0,.11C498.55,27,498.55,27,498.91,27Zm1.35,0c.4,0,.37,0,.37-.33v-.05q0-.11-.12-.12H500a.13.13,0,0,0-.13.12v.08C499.91,27,499.9,27,500.26,27Z"/></svg>